<?xml version="1.0" encoding="UTF-8" standalone="no"?>
<!DOCTYPE svg PUBLIC "-//W3C//DTD SVG 1.1//EN"
 "http://www.w3.org/Graphics/SVG/1.1/DTD/svg11.dtd">
<!-- Generated by graphviz version 2.50.0 (0)
 -->
<!-- Pages: 1 -->
<svg width="412pt" height="3572pt"
 viewBox="0.00 0.00 412.00 3572.00" xmlns="http://www.w3.org/2000/svg" xmlns:xlink="http://www.w3.org/1999/xlink">
<g id="graph0" class="graph" transform="scale(1 1) rotate(0) translate(4 3568)">
<polygon fill="white" stroke="transparent" points="-4,4 -4,-3568 408,-3568 408,4 -4,4"/>
<!-- &#45;4108900466500406968 -->
<g id="node1" class="node">
<title>&#45;4108900466500406968</title>
<g id="a_node1"><a xlink:title="A Blockwise Layer with 54 Tasks.&#10;Number of Partitions: 54&#10;DataFrame Type: pandas&#10;24 DataFrame Columns: [...]&#10;">
<polygon fill="none" stroke="black" points="226.5,-3492 109.5,-3492 109.5,-3456 226.5,-3456 226.5,-3492"/>
<text text-anchor="middle" x="168" y="-3469" font-family="Helvetica,sans-Serif" font-size="20.00">assign&#45;#0</text>
</a>
</g>
</g>
<!-- &#45;1650771748278004719 -->
<g id="node51" class="node">
<title>&#45;1650771748278004719</title>
<g id="a_node51"><a xlink:title="A Blockwise Layer with 54 Tasks.&#10;Number of Partitions: 54&#10;DataFrame Type: pandas&#10;11 DataFrame Columns: [...]&#10;">
<polygon fill="none" stroke="black" points="239.5,-3564 96.5,-3564 96.5,-3528 239.5,-3528 239.5,-3564"/>
<text text-anchor="middle" x="168" y="-3541" font-family="Helvetica,sans-Serif" font-size="20.00">getitem&#45;#50</text>
</a>
</g>
</g>
<!-- &#45;4108900466500406968&#45;&gt;&#45;1650771748278004719 -->
<g id="edge65" class="edge">
<title>&#45;4108900466500406968&#45;&gt;&#45;1650771748278004719</title>
<path fill="none" stroke="black" d="M168,-3492.3C168,-3500.02 168,-3509.29 168,-3517.89"/>
<polygon fill="black" stroke="black" points="164.5,-3517.9 168,-3527.9 171.5,-3517.9 164.5,-3517.9"/>
</g>
<!-- &#45;4087814288971151103 -->
<g id="node2" class="node">
<title>&#45;4087814288971151103</title>
<g id="a_node2"><a xlink:title="A Blockwise Layer with 54 Tasks.&#10;Number of Partitions: 54&#10;DataFrame Type: pandas&#10;24 DataFrame Columns: [...]&#10;">
<polygon fill="none" stroke="black" points="216.5,-3276 99.5,-3276 99.5,-3240 216.5,-3240 216.5,-3276"/>
<text text-anchor="middle" x="158" y="-3253" font-family="Helvetica,sans-Serif" font-size="20.00">assign&#45;#1</text>
</a>
</g>
</g>
<!-- &#45;4087814288971151103&#45;&gt;&#45;4108900466500406968 -->
<g id="edge1" class="edge">
<title>&#45;4087814288971151103&#45;&gt;&#45;4108900466500406968</title>
<path fill="none" stroke="black" d="M148.94,-3276.33C134.53,-3306.27 109.7,-3369.36 127,-3420 130.44,-3430.07 136.66,-3439.72 143.23,-3447.95"/>
<polygon fill="black" stroke="black" points="140.68,-3450.35 149.83,-3455.68 146,-3445.8 140.68,-3450.35"/>
</g>
<!-- &#45;1503476012625456641 -->
<g id="node49" class="node">
<title>&#45;1503476012625456641</title>
<g id="a_node49"><a xlink:title="A Blockwise Layer with 54 Tasks.&#10;">
<polygon fill="none" stroke="black" points="289.5,-3348 146.5,-3348 146.5,-3312 289.5,-3312 289.5,-3348"/>
<text text-anchor="middle" x="218" y="-3325" font-family="Helvetica,sans-Serif" font-size="20.00">getitem&#45;#48</text>
</a>
</g>
</g>
<!-- &#45;4087814288971151103&#45;&gt;&#45;1503476012625456641 -->
<g id="edge63" class="edge">
<title>&#45;4087814288971151103&#45;&gt;&#45;1503476012625456641</title>
<path fill="none" stroke="black" d="M172.83,-3276.3C180.02,-3284.7 188.8,-3294.93 196.69,-3304.14"/>
<polygon fill="black" stroke="black" points="194.17,-3306.58 203.34,-3311.9 199.49,-3302.03 194.17,-3306.58"/>
</g>
<!-- &#45;3119272655684410731 -->
<g id="node3" class="node">
<title>&#45;3119272655684410731</title>
<g id="a_node3"><a xlink:title="A Blockwise Layer with 54 Tasks.&#10;Number of Partitions: 54&#10;DataFrame Type: pandas&#10;24 DataFrame Columns: [...]&#10;">
<polygon fill="none" stroke="black" points="206.5,-3060 89.5,-3060 89.5,-3024 206.5,-3024 206.5,-3060"/>
<text text-anchor="middle" x="148" y="-3037" font-family="Helvetica,sans-Serif" font-size="20.00">assign&#45;#2</text>
</a>
</g>
</g>
<!-- &#45;3119272655684410731&#45;&gt;&#45;4087814288971151103 -->
<g id="edge3" class="edge">
<title>&#45;3119272655684410731&#45;&gt;&#45;4087814288971151103</title>
<path fill="none" stroke="black" d="M138.94,-3060.33C124.53,-3090.27 99.7,-3153.36 117,-3204 120.44,-3214.07 126.66,-3223.72 133.23,-3231.95"/>
<polygon fill="black" stroke="black" points="130.68,-3234.35 139.83,-3239.68 136,-3229.8 130.68,-3234.35"/>
</g>
<!-- &#45;3615448960122373410 -->
<g id="node47" class="node">
<title>&#45;3615448960122373410</title>
<g id="a_node47"><a xlink:title="A Blockwise Layer with 54 Tasks.&#10;">
<polygon fill="none" stroke="black" points="279.5,-3132 136.5,-3132 136.5,-3096 279.5,-3096 279.5,-3132"/>
<text text-anchor="middle" x="208" y="-3109" font-family="Helvetica,sans-Serif" font-size="20.00">getitem&#45;#46</text>
</a>
</g>
</g>
<!-- &#45;3119272655684410731&#45;&gt;&#45;3615448960122373410 -->
<g id="edge61" class="edge">
<title>&#45;3119272655684410731&#45;&gt;&#45;3615448960122373410</title>
<path fill="none" stroke="black" d="M162.83,-3060.3C170.02,-3068.7 178.8,-3078.93 186.69,-3088.14"/>
<polygon fill="black" stroke="black" points="184.17,-3090.58 193.34,-3095.9 189.49,-3086.03 184.17,-3090.58"/>
</g>
<!-- 4925851705889364908 -->
<g id="node4" class="node">
<title>4925851705889364908</title>
<g id="a_node4"><a xlink:title="A Blockwise Layer with 54 Tasks.&#10;Number of Partitions: 54&#10;DataFrame Type: pandas&#10;23 DataFrame Columns: [...]&#10;">
<polygon fill="none" stroke="black" points="266.5,-2772 149.5,-2772 149.5,-2736 266.5,-2736 266.5,-2772"/>
<text text-anchor="middle" x="208" y="-2749" font-family="Helvetica,sans-Serif" font-size="20.00">assign&#45;#3</text>
</a>
</g>
</g>
<!-- 4925851705889364908&#45;&gt;&#45;3119272655684410731 -->
<g id="edge5" class="edge">
<title>4925851705889364908&#45;&gt;&#45;3119272655684410731</title>
<path fill="none" stroke="black" d="M165.89,-2772.13C150.82,-2780.55 135.47,-2792.33 127,-2808 88.95,-2878.37 112,-2909.42 127,-2988 128.71,-2996.94 131.9,-3006.3 135.29,-3014.63"/>
<polygon fill="black" stroke="black" points="132.09,-3016.05 139.28,-3023.83 138.51,-3013.27 132.09,-3016.05"/>
</g>
<!-- 2388706734706253435 -->
<g id="node44" class="node">
<title>2388706734706253435</title>
<g id="a_node44"><a xlink:title="A Blockwise Layer with 54 Tasks.&#10;">
<polygon fill="none" stroke="black" points="279.5,-2844 136.5,-2844 136.5,-2808 279.5,-2808 279.5,-2844"/>
<text text-anchor="middle" x="208" y="-2821" font-family="Helvetica,sans-Serif" font-size="20.00">getitem&#45;#43</text>
</a>
</g>
</g>
<!-- 4925851705889364908&#45;&gt;2388706734706253435 -->
<g id="edge58" class="edge">
<title>4925851705889364908&#45;&gt;2388706734706253435</title>
<path fill="none" stroke="black" d="M208,-2772.3C208,-2780.02 208,-2789.29 208,-2797.89"/>
<polygon fill="black" stroke="black" points="204.5,-2797.9 208,-2807.9 211.5,-2797.9 204.5,-2797.9"/>
</g>
<!-- 6968319469555559966 -->
<g id="node46" class="node">
<title>6968319469555559966</title>
<g id="a_node46"><a xlink:title="A Blockwise Layer with 54 Tasks.&#10;">
<polygon fill="none" stroke="black" points="401.5,-2916 258.5,-2916 258.5,-2880 401.5,-2880 401.5,-2916"/>
<text text-anchor="middle" x="330" y="-2893" font-family="Helvetica,sans-Serif" font-size="20.00">getitem&#45;#45</text>
</a>
</g>
</g>
<!-- 4925851705889364908&#45;&gt;6968319469555559966 -->
<g id="edge60" class="edge">
<title>4925851705889364908&#45;&gt;6968319469555559966</title>
<path fill="none" stroke="black" d="M243.16,-2772.2C258.75,-2781.18 276.38,-2793.36 289,-2808 304.63,-2826.13 315.47,-2851.22 322.05,-2870.14"/>
<polygon fill="black" stroke="black" points="318.74,-2871.27 325.2,-2879.66 325.39,-2869.07 318.74,-2871.27"/>
</g>
<!-- 7109705530589877927 -->
<g id="node5" class="node">
<title>7109705530589877927</title>
<g id="a_node5"><a xlink:title="A Blockwise Layer with 54 Tasks.&#10;Number of Partitions: 54&#10;DataFrame Type: pandas&#10;23 DataFrame Columns: [...]&#10;">
<polygon fill="none" stroke="black" points="242.5,-2484 125.5,-2484 125.5,-2448 242.5,-2448 242.5,-2484"/>
<text text-anchor="middle" x="184" y="-2461" font-family="Helvetica,sans-Serif" font-size="20.00">assign&#45;#4</text>
</a>
</g>
</g>
<!-- 7109705530589877927&#45;&gt;4925851705889364908 -->
<g id="edge8" class="edge">
<title>7109705530589877927&#45;&gt;4925851705889364908</title>
<path fill="none" stroke="black" d="M175.88,-2484.19C158.32,-2523.93 120.91,-2624.51 153,-2700 157.73,-2711.14 166.08,-2721.07 174.87,-2729.24"/>
<polygon fill="black" stroke="black" points="172.77,-2732.05 182.62,-2735.95 177.35,-2726.76 172.77,-2732.05"/>
</g>
<!-- 1201767948858172892 -->
<g id="node40" class="node">
<title>1201767948858172892</title>
<g id="a_node40"><a xlink:title="A Blockwise Layer with 54 Tasks.&#10;">
<polygon fill="none" stroke="black" points="329.5,-2556 186.5,-2556 186.5,-2520 329.5,-2520 329.5,-2556"/>
<text text-anchor="middle" x="258" y="-2533" font-family="Helvetica,sans-Serif" font-size="20.00">getitem&#45;#39</text>
</a>
</g>
</g>
<!-- 7109705530589877927&#45;&gt;1201767948858172892 -->
<g id="edge53" class="edge">
<title>7109705530589877927&#45;&gt;1201767948858172892</title>
<path fill="none" stroke="black" d="M202.29,-2484.3C211.43,-2492.95 222.64,-2503.55 232.6,-2512.97"/>
<polygon fill="black" stroke="black" points="230.25,-2515.57 239.92,-2519.9 235.06,-2510.48 230.25,-2515.57"/>
</g>
<!-- &#45;6621452576165074094 -->
<g id="node6" class="node">
<title>&#45;6621452576165074094</title>
<g id="a_node6"><a xlink:title="A Blockwise Layer with 54 Tasks.&#10;Number of Partitions: 54&#10;DataFrame Type: pandas&#10;23 DataFrame Columns: [...]&#10;">
<polygon fill="none" stroke="black" points="218.5,-2196 101.5,-2196 101.5,-2160 218.5,-2160 218.5,-2196"/>
<text text-anchor="middle" x="160" y="-2173" font-family="Helvetica,sans-Serif" font-size="20.00">assign&#45;#5</text>
</a>
</g>
</g>
<!-- &#45;6621452576165074094&#45;&gt;7109705530589877927 -->
<g id="edge9" class="edge">
<title>&#45;6621452576165074094&#45;&gt;7109705530589877927</title>
<path fill="none" stroke="black" d="M151.88,-2196.19C134.32,-2235.93 96.91,-2336.51 129,-2412 133.73,-2423.14 142.08,-2433.07 150.87,-2441.24"/>
<polygon fill="black" stroke="black" points="148.77,-2444.05 158.62,-2447.95 153.35,-2438.76 148.77,-2444.05"/>
</g>
<!-- &#45;7160341392647548408 -->
<g id="node37" class="node">
<title>&#45;7160341392647548408</title>
<g id="a_node37"><a xlink:title="A Blockwise Layer with 54 Tasks.&#10;">
<polygon fill="none" stroke="black" points="305.5,-2268 162.5,-2268 162.5,-2232 305.5,-2232 305.5,-2268"/>
<text text-anchor="middle" x="234" y="-2245" font-family="Helvetica,sans-Serif" font-size="20.00">getitem&#45;#36</text>
</a>
</g>
</g>
<!-- &#45;6621452576165074094&#45;&gt;&#45;7160341392647548408 -->
<g id="edge50" class="edge">
<title>&#45;6621452576165074094&#45;&gt;&#45;7160341392647548408</title>
<path fill="none" stroke="black" d="M178.29,-2196.3C187.43,-2204.95 198.64,-2215.55 208.6,-2224.97"/>
<polygon fill="black" stroke="black" points="206.25,-2227.57 215.92,-2231.9 211.06,-2222.48 206.25,-2227.57"/>
</g>
<!-- 8296054393036032461 -->
<g id="node7" class="node">
<title>8296054393036032461</title>
<g id="a_node7"><a xlink:title="A Blockwise Layer with 54 Tasks.&#10;Number of Partitions: 54&#10;DataFrame Type: pandas&#10;22 DataFrame Columns: [...]&#10;">
<polygon fill="none" stroke="black" points="194.5,-1908 77.5,-1908 77.5,-1872 194.5,-1872 194.5,-1908"/>
<text text-anchor="middle" x="136" y="-1885" font-family="Helvetica,sans-Serif" font-size="20.00">assign&#45;#6</text>
</a>
</g>
</g>
<!-- 8296054393036032461&#45;&gt;&#45;6621452576165074094 -->
<g id="edge11" class="edge">
<title>8296054393036032461&#45;&gt;&#45;6621452576165074094</title>
<path fill="none" stroke="black" d="M127.88,-1908.19C110.32,-1947.93 72.91,-2048.51 105,-2124 109.73,-2135.14 118.08,-2145.07 126.87,-2153.24"/>
<polygon fill="black" stroke="black" points="124.77,-2156.05 134.62,-2159.95 129.35,-2150.76 124.77,-2156.05"/>
</g>
<!-- 1235090482754452163 -->
<g id="node34" class="node">
<title>1235090482754452163</title>
<g id="a_node34"><a xlink:title="A Blockwise Layer with 54 Tasks.&#10;">
<polygon fill="none" stroke="black" points="281.5,-1980 138.5,-1980 138.5,-1944 281.5,-1944 281.5,-1980"/>
<text text-anchor="middle" x="210" y="-1957" font-family="Helvetica,sans-Serif" font-size="20.00">getitem&#45;#33</text>
</a>
</g>
</g>
<!-- 8296054393036032461&#45;&gt;1235090482754452163 -->
<g id="edge47" class="edge">
<title>8296054393036032461&#45;&gt;1235090482754452163</title>
<path fill="none" stroke="black" d="M154.29,-1908.3C163.43,-1916.95 174.64,-1927.55 184.6,-1936.97"/>
<polygon fill="black" stroke="black" points="182.25,-1939.57 191.92,-1943.9 187.06,-1934.48 182.25,-1939.57"/>
</g>
<!-- &#45;2225636703089620781 -->
<g id="node8" class="node">
<title>&#45;2225636703089620781</title>
<g id="a_node8"><a xlink:title="A Blockwise Layer with 54 Tasks.&#10;Number of Partitions: 54&#10;DataFrame Type: pandas&#10;22 DataFrame Columns: [...]&#10;">
<polygon fill="none" stroke="black" points="170.5,-1620 53.5,-1620 53.5,-1584 170.5,-1584 170.5,-1620"/>
<text text-anchor="middle" x="112" y="-1597" font-family="Helvetica,sans-Serif" font-size="20.00">assign&#45;#7</text>
</a>
</g>
</g>
<!-- &#45;2225636703089620781&#45;&gt;8296054393036032461 -->
<g id="edge14" class="edge">
<title>&#45;2225636703089620781&#45;&gt;8296054393036032461</title>
<path fill="none" stroke="black" d="M103.88,-1620.19C86.32,-1659.93 48.91,-1760.51 81,-1836 85.73,-1847.14 94.08,-1857.07 102.87,-1865.24"/>
<polygon fill="black" stroke="black" points="100.77,-1868.05 110.62,-1871.95 105.35,-1862.76 100.77,-1868.05"/>
</g>
<!-- &#45;3434457006729454688 -->
<g id="node31" class="node">
<title>&#45;3434457006729454688</title>
<g id="a_node31"><a xlink:title="A Blockwise Layer with 54 Tasks.&#10;">
<polygon fill="none" stroke="black" points="257.5,-1692 114.5,-1692 114.5,-1656 257.5,-1656 257.5,-1692"/>
<text text-anchor="middle" x="186" y="-1669" font-family="Helvetica,sans-Serif" font-size="20.00">getitem&#45;#30</text>
</a>
</g>
</g>
<!-- &#45;2225636703089620781&#45;&gt;&#45;3434457006729454688 -->
<g id="edge44" class="edge">
<title>&#45;2225636703089620781&#45;&gt;&#45;3434457006729454688</title>
<path fill="none" stroke="black" d="M130.29,-1620.3C139.43,-1628.95 150.64,-1639.55 160.6,-1648.97"/>
<polygon fill="black" stroke="black" points="158.25,-1651.57 167.92,-1655.9 163.06,-1646.48 158.25,-1651.57"/>
</g>
<!-- &#45;5740622921225928856 -->
<g id="node9" class="node">
<title>&#45;5740622921225928856</title>
<g id="a_node9"><a xlink:title="A Blockwise Layer with 54 Tasks.&#10;Number of Partitions: 54&#10;DataFrame Type: pandas&#10;21 DataFrame Columns: [...]&#10;">
<polygon fill="none" stroke="black" points="179.5,-1404 62.5,-1404 62.5,-1368 179.5,-1368 179.5,-1404"/>
<text text-anchor="middle" x="121" y="-1381" font-family="Helvetica,sans-Serif" font-size="20.00">assign&#45;#8</text>
</a>
</g>
</g>
<!-- &#45;5740622921225928856&#45;&gt;&#45;2225636703089620781 -->
<g id="edge15" class="edge">
<title>&#45;5740622921225928856&#45;&gt;&#45;2225636703089620781</title>
<path fill="none" stroke="black" d="M107.85,-1404.09C101.08,-1413.99 93.51,-1427.04 90,-1440 77.48,-1486.19 91.22,-1541.86 101.91,-1574.17"/>
<polygon fill="black" stroke="black" points="98.66,-1575.48 105.23,-1583.79 105.27,-1573.2 98.66,-1575.48"/>
</g>
<!-- 4161483392826004782 -->
<g id="node29" class="node">
<title>4161483392826004782</title>
<g id="a_node29"><a xlink:title="A Blockwise Layer with 54 Tasks.&#10;">
<polygon fill="none" stroke="black" points="242.5,-1476 99.5,-1476 99.5,-1440 242.5,-1440 242.5,-1476"/>
<text text-anchor="middle" x="171" y="-1453" font-family="Helvetica,sans-Serif" font-size="20.00">getitem&#45;#28</text>
</a>
</g>
</g>
<!-- &#45;5740622921225928856&#45;&gt;4161483392826004782 -->
<g id="edge42" class="edge">
<title>&#45;5740622921225928856&#45;&gt;4161483392826004782</title>
<path fill="none" stroke="black" d="M133.36,-1404.3C139.23,-1412.53 146.37,-1422.52 152.84,-1431.58"/>
<polygon fill="black" stroke="black" points="150.12,-1433.79 158.78,-1439.9 155.82,-1429.72 150.12,-1433.79"/>
</g>
<!-- &#45;771515911327349779 -->
<g id="node10" class="node">
<title>&#45;771515911327349779</title>
<g id="a_node10"><a xlink:title="A Blockwise Layer with 54 Tasks.&#10;Number of Partitions: 54&#10;DataFrame Type: pandas&#10;20 DataFrame Columns: [...]&#10;">
<polygon fill="none" stroke="black" points="179.5,-1188 62.5,-1188 62.5,-1152 179.5,-1152 179.5,-1188"/>
<text text-anchor="middle" x="121" y="-1165" font-family="Helvetica,sans-Serif" font-size="20.00">assign&#45;#9</text>
</a>
</g>
</g>
<!-- &#45;771515911327349779&#45;&gt;&#45;5740622921225928856 -->
<g id="edge18" class="edge">
<title>&#45;771515911327349779&#45;&gt;&#45;5740622921225928856</title>
<path fill="none" stroke="black" d="M107.85,-1188.09C101.08,-1197.99 93.51,-1211.04 90,-1224 77.45,-1270.33 77.45,-1285.67 90,-1332 92.58,-1341.52 97.34,-1351.08 102.38,-1359.41"/>
<polygon fill="black" stroke="black" points="99.49,-1361.4 107.85,-1367.91 105.38,-1357.61 99.49,-1361.4"/>
</g>
<!-- &#45;1357430270509250847 -->
<g id="node27" class="node">
<title>&#45;1357430270509250847</title>
<g id="a_node27"><a xlink:title="A Blockwise Layer with 54 Tasks.&#10;">
<polygon fill="none" stroke="black" points="242.5,-1260 99.5,-1260 99.5,-1224 242.5,-1224 242.5,-1260"/>
<text text-anchor="middle" x="171" y="-1237" font-family="Helvetica,sans-Serif" font-size="20.00">getitem&#45;#26</text>
</a>
</g>
</g>
<!-- &#45;771515911327349779&#45;&gt;&#45;1357430270509250847 -->
<g id="edge40" class="edge">
<title>&#45;771515911327349779&#45;&gt;&#45;1357430270509250847</title>
<path fill="none" stroke="black" d="M133.36,-1188.3C139.23,-1196.53 146.37,-1206.52 152.84,-1215.58"/>
<polygon fill="black" stroke="black" points="150.12,-1217.79 158.78,-1223.9 155.82,-1213.72 150.12,-1217.79"/>
</g>
<!-- &#45;3642769955550651467 -->
<g id="node11" class="node">
<title>&#45;3642769955550651467</title>
<g id="a_node11"><a xlink:title="A Blockwise Layer with 54 Tasks.&#10;Number of Partitions: 54&#10;DataFrame Type: pandas&#10;20 DataFrame Columns: [...]&#10;">
<polygon fill="none" stroke="black" points="189,-972 59,-972 59,-936 189,-936 189,-972"/>
<text text-anchor="middle" x="124" y="-949" font-family="Helvetica,sans-Serif" font-size="20.00">assign&#45;#10</text>
</a>
</g>
</g>
<!-- &#45;3642769955550651467&#45;&gt;&#45;771515911327349779 -->
<g id="edge20" class="edge">
<title>&#45;3642769955550651467&#45;&gt;&#45;771515911327349779</title>
<path fill="none" stroke="black" d="M110.85,-972.09C104.08,-981.99 96.51,-995.04 93,-1008 89.08,-1022.46 90.27,-1096.84 95,-1116 97.22,-1125.01 101.13,-1134.28 105.25,-1142.5"/>
<polygon fill="black" stroke="black" points="102.29,-1144.4 110.09,-1151.58 108.47,-1141.11 102.29,-1144.4"/>
</g>
<!-- &#45;3516758335309449355 -->
<g id="node25" class="node">
<title>&#45;3516758335309449355</title>
<g id="a_node25"><a xlink:title="A Blockwise Layer with 54 Tasks.&#10;">
<polygon fill="none" stroke="black" points="245.5,-1044 102.5,-1044 102.5,-1008 245.5,-1008 245.5,-1044"/>
<text text-anchor="middle" x="174" y="-1021" font-family="Helvetica,sans-Serif" font-size="20.00">getitem&#45;#24</text>
</a>
</g>
</g>
<!-- &#45;3642769955550651467&#45;&gt;&#45;3516758335309449355 -->
<g id="edge38" class="edge">
<title>&#45;3642769955550651467&#45;&gt;&#45;3516758335309449355</title>
<path fill="none" stroke="black" d="M136.36,-972.3C142.23,-980.53 149.37,-990.52 155.84,-999.58"/>
<polygon fill="black" stroke="black" points="153.12,-1001.79 161.78,-1007.9 158.82,-997.72 153.12,-1001.79"/>
</g>
<!-- 3338026487372038830 -->
<g id="node12" class="node">
<title>3338026487372038830</title>
<g id="a_node12"><a xlink:title="A Blockwise Layer with 54 Tasks.&#10;Number of Partitions: 54&#10;DataFrame Type: pandas&#10;19 DataFrame Columns: [...]&#10;">
<polygon fill="none" stroke="black" points="189,-756 59,-756 59,-720 189,-720 189,-756"/>
<text text-anchor="middle" x="124" y="-733" font-family="Helvetica,sans-Serif" font-size="20.00">assign&#45;#11</text>
</a>
</g>
</g>
<!-- 3338026487372038830&#45;&gt;&#45;3642769955550651467 -->
<g id="edge21" class="edge">
<title>3338026487372038830&#45;&gt;&#45;3642769955550651467</title>
<path fill="none" stroke="black" d="M110.85,-756.09C104.08,-765.99 96.51,-779.04 93,-792 80.45,-838.33 80.45,-853.67 93,-900 95.58,-909.52 100.34,-919.08 105.38,-927.41"/>
<polygon fill="black" stroke="black" points="102.49,-929.4 110.85,-935.91 108.38,-925.61 102.49,-929.4"/>
</g>
<!-- 1413697237080121830 -->
<g id="node23" class="node">
<title>1413697237080121830</title>
<g id="a_node23"><a xlink:title="A Blockwise Layer with 54 Tasks.&#10;">
<polygon fill="none" stroke="black" points="245.5,-828 102.5,-828 102.5,-792 245.5,-792 245.5,-828"/>
<text text-anchor="middle" x="174" y="-805" font-family="Helvetica,sans-Serif" font-size="20.00">getitem&#45;#22</text>
</a>
</g>
</g>
<!-- 3338026487372038830&#45;&gt;1413697237080121830 -->
<g id="edge36" class="edge">
<title>3338026487372038830&#45;&gt;1413697237080121830</title>
<path fill="none" stroke="black" d="M136.36,-756.3C142.23,-764.53 149.37,-774.52 155.84,-783.58"/>
<polygon fill="black" stroke="black" points="153.12,-785.79 161.78,-791.9 158.82,-781.72 153.12,-785.79"/>
</g>
<!-- &#45;9138883468644666703 -->
<g id="node13" class="node">
<title>&#45;9138883468644666703</title>
<g id="a_node13"><a xlink:title="A Blockwise Layer with 54 Tasks.&#10;Number of Partitions: 54&#10;DataFrame Type: pandas&#10;19 DataFrame Columns: [...]&#10;">
<polygon fill="none" stroke="black" points="188.5,-540 45.5,-540 45.5,-504 188.5,-504 188.5,-540"/>
<text text-anchor="middle" x="117" y="-517" font-family="Helvetica,sans-Serif" font-size="20.00">getitem&#45;#12</text>
</a>
</g>
</g>
<!-- &#45;9138883468644666703&#45;&gt;3338026487372038830 -->
<g id="edge23" class="edge">
<title>&#45;9138883468644666703&#45;&gt;3338026487372038830</title>
<path fill="none" stroke="black" d="M107.5,-540.13C102.34,-550.26 96.34,-563.51 93,-576 80.58,-622.47 71.28,-638.21 86,-684 89.19,-693.92 95,-703.56 101.13,-711.83"/>
<polygon fill="black" stroke="black" points="98.58,-714.26 107.54,-719.92 104.07,-709.91 98.58,-714.26"/>
</g>
<!-- 1974747508822640457 -->
<g id="node21" class="node">
<title>1974747508822640457</title>
<g id="a_node21"><a xlink:title="A Blockwise Layer with 54 Tasks.&#10;">
<polygon fill="none" stroke="black" points="245.5,-612 102.5,-612 102.5,-576 245.5,-576 245.5,-612"/>
<text text-anchor="middle" x="174" y="-589" font-family="Helvetica,sans-Serif" font-size="20.00">getitem&#45;#20</text>
</a>
</g>
</g>
<!-- &#45;9138883468644666703&#45;&gt;1974747508822640457 -->
<g id="edge34" class="edge">
<title>&#45;9138883468644666703&#45;&gt;1974747508822640457</title>
<path fill="none" stroke="black" d="M131.09,-540.3C137.92,-548.7 146.26,-558.93 153.76,-568.14"/>
<polygon fill="black" stroke="black" points="151.04,-570.35 160.07,-575.9 156.47,-565.93 151.04,-570.35"/>
</g>
<!-- 2431378994202877291 -->
<g id="node14" class="node">
<title>2431378994202877291</title>
<g id="a_node14"><a xlink:title="A Blockwise Layer with 54 Tasks.&#10;Number of Partitions: 54&#10;DataFrame Type: pandas&#10;19 DataFrame Columns: [...]&#10;">
<polygon fill="none" stroke="black" points="201.5,-324 58.5,-324 58.5,-288 201.5,-288 201.5,-324"/>
<text text-anchor="middle" x="130" y="-301" font-family="Helvetica,sans-Serif" font-size="20.00">getitem&#45;#13</text>
</a>
</g>
</g>
<!-- 2431378994202877291&#45;&gt;&#45;9138883468644666703 -->
<g id="edge25" class="edge">
<title>2431378994202877291&#45;&gt;&#45;9138883468644666703</title>
<path fill="none" stroke="black" d="M116.85,-324.09C110.08,-333.99 102.51,-347.04 99,-360 86.52,-406.05 98.48,-461.77 107.98,-494.12"/>
<polygon fill="black" stroke="black" points="104.66,-495.23 110.94,-503.76 111.35,-493.17 104.66,-495.23"/>
</g>
<!-- &#45;4195942284663483737 -->
<g id="node19" class="node">
<title>&#45;4195942284663483737</title>
<g id="a_node19"><a xlink:title="A Blockwise Layer with 54 Tasks.&#10;">
<polygon fill="none" stroke="black" points="251.5,-396 108.5,-396 108.5,-360 251.5,-360 251.5,-396"/>
<text text-anchor="middle" x="180" y="-373" font-family="Helvetica,sans-Serif" font-size="20.00">getitem&#45;#18</text>
</a>
</g>
</g>
<!-- 2431378994202877291&#45;&gt;&#45;4195942284663483737 -->
<g id="edge32" class="edge">
<title>2431378994202877291&#45;&gt;&#45;4195942284663483737</title>
<path fill="none" stroke="black" d="M142.36,-324.3C148.23,-332.53 155.37,-342.52 161.84,-351.58"/>
<polygon fill="black" stroke="black" points="159.12,-353.79 167.78,-359.9 164.82,-349.72 159.12,-353.79"/>
</g>
<!-- 398788095352986975 -->
<g id="node15" class="node">
<title>398788095352986975</title>
<g id="a_node15"><a xlink:title="A DataFrameIO Layer with 54 Tasks.&#10;Number of Partitions: 54&#10;DataFrame Type: pandas&#10;19 DataFrame Columns: [...]&#10;">
<polygon fill="none" stroke="black" points="196.5,-36 45.5,-36 45.5,0 196.5,0 196.5,-36"/>
<text text-anchor="middle" x="121" y="-13" font-family="Helvetica,sans-Serif" font-size="20.00">read&#45;csv&#45;#14</text>
</a>
</g>
</g>
<!-- 855813921937268859 -->
<g id="node16" class="node">
<title>855813921937268859</title>
<g id="a_node16"><a xlink:title="A Blockwise Layer with 54 Tasks.&#10;Number of Partitions: 54&#10;DataFrame Type: pandas&#10;19 DataFrame Columns: [...]&#10;">
<polygon fill="none" stroke="black" points="242,-108 0,-108 0,-72 242,-72 242,-108"/>
<text text-anchor="middle" x="121" y="-85" font-family="Helvetica,sans-Serif" font-size="20.00">to_pyarrow_string&#45;#15</text>
</a>
</g>
</g>
<!-- 398788095352986975&#45;&gt;855813921937268859 -->
<g id="edge29" class="edge">
<title>398788095352986975&#45;&gt;855813921937268859</title>
<path fill="none" stroke="black" d="M121,-36.3C121,-44.02 121,-53.29 121,-61.89"/>
<polygon fill="black" stroke="black" points="117.5,-61.9 121,-71.9 124.5,-61.9 117.5,-61.9"/>
</g>
<!-- 855813921937268859&#45;&gt;2431378994202877291 -->
<g id="edge27" class="edge">
<title>855813921937268859&#45;&gt;2431378994202877291</title>
<path fill="none" stroke="black" d="M112,-108.3C97.69,-138.21 73,-201.26 90,-252 93.35,-262 99.42,-271.62 105.83,-279.86"/>
<polygon fill="black" stroke="black" points="103.18,-282.15 112.27,-287.6 108.56,-277.67 103.18,-282.15"/>
</g>
<!-- 8645505002525533443 -->
<g id="node17" class="node">
<title>8645505002525533443</title>
<g id="a_node17"><a xlink:title="A Blockwise Layer with 54 Tasks.&#10;">
<polygon fill="none" stroke="black" points="251.5,-180 108.5,-180 108.5,-144 251.5,-144 251.5,-180"/>
<text text-anchor="middle" x="180" y="-157" font-family="Helvetica,sans-Serif" font-size="20.00">getitem&#45;#16</text>
</a>
</g>
</g>
<!-- 855813921937268859&#45;&gt;8645505002525533443 -->
<g id="edge30" class="edge">
<title>855813921937268859&#45;&gt;8645505002525533443</title>
<path fill="none" stroke="black" d="M135.58,-108.3C142.66,-116.7 151.28,-126.93 159.05,-136.14"/>
<polygon fill="black" stroke="black" points="156.46,-138.51 165.58,-143.9 161.81,-133.99 156.46,-138.51"/>
</g>
<!-- &#45;8755767028930559085 -->
<g id="node18" class="node">
<title>&#45;8755767028930559085</title>
<g id="a_node18"><a xlink:title="A Blockwise Layer with 54 Tasks.&#10;">
<polygon fill="none" stroke="black" points="281,-252 99,-252 99,-216 281,-216 281,-252"/>
<text text-anchor="middle" x="190" y="-229" font-family="Helvetica,sans-Serif" font-size="20.00">str&#45;contains&#45;#17</text>
</a>
</g>
</g>
<!-- 8645505002525533443&#45;&gt;&#45;8755767028930559085 -->
<g id="edge31" class="edge">
<title>8645505002525533443&#45;&gt;&#45;8755767028930559085</title>
<path fill="none" stroke="black" d="M182.47,-180.3C183.57,-188.02 184.9,-197.29 186.13,-205.89"/>
<polygon fill="black" stroke="black" points="182.68,-206.49 187.56,-215.9 189.61,-205.5 182.68,-206.49"/>
</g>
<!-- &#45;8755767028930559085&#45;&gt;2431378994202877291 -->
<g id="edge28" class="edge">
<title>&#45;8755767028930559085&#45;&gt;2431378994202877291</title>
<path fill="none" stroke="black" d="M175.17,-252.3C167.98,-260.7 159.2,-270.93 151.31,-280.14"/>
<polygon fill="black" stroke="black" points="148.51,-278.03 144.66,-287.9 153.83,-282.58 148.51,-278.03"/>
</g>
<!-- &#45;4500377510368696969 -->
<g id="node20" class="node">
<title>&#45;4500377510368696969</title>
<g id="a_node20"><a xlink:title="A Blockwise Layer with 54 Tasks.&#10;">
<polygon fill="none" stroke="black" points="212.5,-468 121.5,-468 121.5,-432 212.5,-432 212.5,-468"/>
<text text-anchor="middle" x="167" y="-445" font-family="Helvetica,sans-Serif" font-size="20.00">eq&#45;#19</text>
</a>
</g>
</g>
<!-- &#45;4195942284663483737&#45;&gt;&#45;4500377510368696969 -->
<g id="edge33" class="edge">
<title>&#45;4195942284663483737&#45;&gt;&#45;4500377510368696969</title>
<path fill="none" stroke="black" d="M176.79,-396.3C175.35,-404.02 173.63,-413.29 172.04,-421.89"/>
<polygon fill="black" stroke="black" points="168.56,-421.42 170.18,-431.9 175.44,-422.7 168.56,-421.42"/>
</g>
<!-- &#45;4500377510368696969&#45;&gt;&#45;9138883468644666703 -->
<g id="edge26" class="edge">
<title>&#45;4500377510368696969&#45;&gt;&#45;9138883468644666703</title>
<path fill="none" stroke="black" d="M154.64,-468.3C148.77,-476.53 141.63,-486.52 135.16,-495.58"/>
<polygon fill="black" stroke="black" points="132.18,-493.72 129.22,-503.9 137.88,-497.79 132.18,-493.72"/>
</g>
<!-- &#45;8770437136700112347 -->
<g id="node22" class="node">
<title>&#45;8770437136700112347</title>
<g id="a_node22"><a xlink:title="A Blockwise Layer with 54 Tasks.&#10;">
<polygon fill="none" stroke="black" points="266.5,-684 95.5,-684 95.5,-648 266.5,-648 266.5,-684"/>
<text text-anchor="middle" x="181" y="-661" font-family="Helvetica,sans-Serif" font-size="20.00">str&#45;replace&#45;#21</text>
</a>
</g>
</g>
<!-- 1974747508822640457&#45;&gt;&#45;8770437136700112347 -->
<g id="edge35" class="edge">
<title>1974747508822640457&#45;&gt;&#45;8770437136700112347</title>
<path fill="none" stroke="black" d="M175.73,-612.3C176.5,-620.02 177.43,-629.29 178.29,-637.89"/>
<polygon fill="black" stroke="black" points="174.81,-638.29 179.29,-647.9 181.78,-637.6 174.81,-638.29"/>
</g>
<!-- &#45;8770437136700112347&#45;&gt;3338026487372038830 -->
<g id="edge24" class="edge">
<title>&#45;8770437136700112347&#45;&gt;3338026487372038830</title>
<path fill="none" stroke="black" d="M166.91,-684.3C160.08,-692.7 151.74,-702.93 144.24,-712.14"/>
<polygon fill="black" stroke="black" points="141.53,-709.93 137.93,-719.9 146.96,-714.35 141.53,-709.93"/>
</g>
<!-- 2872847020977732431 -->
<g id="node24" class="node">
<title>2872847020977732431</title>
<g id="a_node24"><a xlink:title="A Blockwise Layer with 54 Tasks.&#10;">
<polygon fill="none" stroke="black" points="245.5,-900 102.5,-900 102.5,-864 245.5,-864 245.5,-900"/>
<text text-anchor="middle" x="174" y="-877" font-family="Helvetica,sans-Serif" font-size="20.00">str&#45;slice&#45;#23</text>
</a>
</g>
</g>
<!-- 1413697237080121830&#45;&gt;2872847020977732431 -->
<g id="edge37" class="edge">
<title>1413697237080121830&#45;&gt;2872847020977732431</title>
<path fill="none" stroke="black" d="M174,-828.3C174,-836.02 174,-845.29 174,-853.89"/>
<polygon fill="black" stroke="black" points="170.5,-853.9 174,-863.9 177.5,-853.9 170.5,-853.9"/>
</g>
<!-- 2872847020977732431&#45;&gt;&#45;3642769955550651467 -->
<g id="edge22" class="edge">
<title>2872847020977732431&#45;&gt;&#45;3642769955550651467</title>
<path fill="none" stroke="black" d="M161.64,-900.3C155.77,-908.53 148.63,-918.52 142.16,-927.58"/>
<polygon fill="black" stroke="black" points="139.18,-925.72 136.22,-935.9 144.88,-929.79 139.18,-925.72"/>
</g>
<!-- 3301005221871643181 -->
<g id="node26" class="node">
<title>3301005221871643181</title>
<g id="a_node26"><a xlink:title="A Blockwise Layer with 54 Tasks.&#10;">
<polygon fill="none" stroke="black" points="237.5,-1116 104.5,-1116 104.5,-1080 237.5,-1080 237.5,-1116"/>
<text text-anchor="middle" x="171" y="-1093" font-family="Helvetica,sans-Serif" font-size="20.00">astype&#45;#25</text>
</a>
</g>
</g>
<!-- &#45;3516758335309449355&#45;&gt;3301005221871643181 -->
<g id="edge39" class="edge">
<title>&#45;3516758335309449355&#45;&gt;3301005221871643181</title>
<path fill="none" stroke="black" d="M173.26,-1044.3C172.93,-1052.02 172.53,-1061.29 172.16,-1069.89"/>
<polygon fill="black" stroke="black" points="168.66,-1069.75 171.73,-1079.9 175.66,-1070.05 168.66,-1069.75"/>
</g>
<!-- 3301005221871643181&#45;&gt;&#45;771515911327349779 -->
<g id="edge19" class="edge">
<title>3301005221871643181&#45;&gt;&#45;771515911327349779</title>
<path fill="none" stroke="black" d="M158.64,-1116.3C152.77,-1124.53 145.63,-1134.52 139.16,-1143.58"/>
<polygon fill="black" stroke="black" points="136.18,-1141.72 133.22,-1151.9 141.88,-1145.79 136.18,-1141.72"/>
</g>
<!-- 7253724481690614649 -->
<g id="node28" class="node">
<title>7253724481690614649</title>
<g id="a_node28"><a xlink:title="A Blockwise Layer with 54 Tasks.&#10;">
<polygon fill="none" stroke="black" points="242.5,-1332 99.5,-1332 99.5,-1296 242.5,-1296 242.5,-1332"/>
<text text-anchor="middle" x="171" y="-1309" font-family="Helvetica,sans-Serif" font-size="20.00">str&#45;slice&#45;#27</text>
</a>
</g>
</g>
<!-- &#45;1357430270509250847&#45;&gt;7253724481690614649 -->
<g id="edge41" class="edge">
<title>&#45;1357430270509250847&#45;&gt;7253724481690614649</title>
<path fill="none" stroke="black" d="M171,-1260.3C171,-1268.02 171,-1277.29 171,-1285.89"/>
<polygon fill="black" stroke="black" points="167.5,-1285.9 171,-1295.9 174.5,-1285.9 167.5,-1285.9"/>
</g>
<!-- 7253724481690614649&#45;&gt;&#45;5740622921225928856 -->
<g id="edge17" class="edge">
<title>7253724481690614649&#45;&gt;&#45;5740622921225928856</title>
<path fill="none" stroke="black" d="M158.64,-1332.3C152.77,-1340.53 145.63,-1350.52 139.16,-1359.58"/>
<polygon fill="black" stroke="black" points="136.18,-1357.72 133.22,-1367.9 141.88,-1361.79 136.18,-1357.72"/>
</g>
<!-- &#45;1254444659399135794 -->
<g id="node30" class="node">
<title>&#45;1254444659399135794</title>
<g id="a_node30"><a xlink:title="A Materialized Layer with 54 Tasks.&#10;">
<polygon fill="none" stroke="black" points="217,-1548 107,-1548 107,-1512 217,-1512 217,-1548"/>
<text text-anchor="middle" x="162" y="-1525" font-family="Helvetica,sans-Serif" font-size="20.00">map&#45;#29</text>
</a>
</g>
</g>
<!-- 4161483392826004782&#45;&gt;&#45;1254444659399135794 -->
<g id="edge43" class="edge">
<title>4161483392826004782&#45;&gt;&#45;1254444659399135794</title>
<path fill="none" stroke="black" d="M168.78,-1476.3C167.78,-1484.02 166.59,-1493.29 165.49,-1501.89"/>
<polygon fill="black" stroke="black" points="162,-1501.53 164.2,-1511.9 168.95,-1502.42 162,-1501.53"/>
</g>
<!-- &#45;1254444659399135794&#45;&gt;&#45;2225636703089620781 -->
<g id="edge16" class="edge">
<title>&#45;1254444659399135794&#45;&gt;&#45;2225636703089620781</title>
<path fill="none" stroke="black" d="M149.64,-1548.3C143.77,-1556.53 136.63,-1566.52 130.16,-1575.58"/>
<polygon fill="black" stroke="black" points="127.18,-1573.72 124.22,-1583.9 132.88,-1577.79 127.18,-1573.72"/>
</g>
<!-- &#45;4794307355153491122 -->
<g id="node32" class="node">
<title>&#45;4794307355153491122</title>
<g id="a_node32"><a xlink:title="A Blockwise Layer with 54 Tasks.&#10;">
<polygon fill="none" stroke="black" points="264.5,-1764 131.5,-1764 131.5,-1728 264.5,-1728 264.5,-1764"/>
<text text-anchor="middle" x="198" y="-1741" font-family="Helvetica,sans-Serif" font-size="20.00">astype&#45;#31</text>
</a>
</g>
</g>
<!-- &#45;3434457006729454688&#45;&gt;&#45;4794307355153491122 -->
<g id="edge45" class="edge">
<title>&#45;3434457006729454688&#45;&gt;&#45;4794307355153491122</title>
<path fill="none" stroke="black" d="M188.97,-1692.3C190.29,-1700.02 191.88,-1709.29 193.35,-1717.89"/>
<polygon fill="black" stroke="black" points="189.93,-1718.63 195.07,-1727.9 196.83,-1717.45 189.93,-1718.63"/>
</g>
<!-- 8558289588573116074 -->
<g id="node33" class="node">
<title>8558289588573116074</title>
<g id="a_node33"><a xlink:title="A Blockwise Layer with 54 Tasks.&#10;">
<polygon fill="none" stroke="black" points="332,-1836 90,-1836 90,-1800 332,-1800 332,-1836"/>
<text text-anchor="middle" x="211" y="-1813" font-family="Helvetica,sans-Serif" font-size="20.00">to_pyarrow_string&#45;#32</text>
</a>
</g>
</g>
<!-- &#45;4794307355153491122&#45;&gt;8558289588573116074 -->
<g id="edge46" class="edge">
<title>&#45;4794307355153491122&#45;&gt;8558289588573116074</title>
<path fill="none" stroke="black" d="M201.21,-1764.3C202.65,-1772.02 204.37,-1781.29 205.96,-1789.89"/>
<polygon fill="black" stroke="black" points="202.56,-1790.7 207.82,-1799.9 209.44,-1789.42 202.56,-1790.7"/>
</g>
<!-- 8558289588573116074&#45;&gt;8296054393036032461 -->
<g id="edge13" class="edge">
<title>8558289588573116074&#45;&gt;8296054393036032461</title>
<path fill="none" stroke="black" d="M192.46,-1836.3C183.2,-1844.95 171.84,-1855.55 161.74,-1864.97"/>
<polygon fill="black" stroke="black" points="159.25,-1862.51 154.33,-1871.9 164.02,-1867.63 159.25,-1862.51"/>
</g>
<!-- 5847120002953386509 -->
<g id="node35" class="node">
<title>5847120002953386509</title>
<g id="a_node35"><a xlink:title="A Materialized Layer with 54 Tasks.&#10;">
<polygon fill="none" stroke="black" points="277,-2052 167,-2052 167,-2016 277,-2016 277,-2052"/>
<text text-anchor="middle" x="222" y="-2029" font-family="Helvetica,sans-Serif" font-size="20.00">map&#45;#34</text>
</a>
</g>
</g>
<!-- 1235090482754452163&#45;&gt;5847120002953386509 -->
<g id="edge48" class="edge">
<title>1235090482754452163&#45;&gt;5847120002953386509</title>
<path fill="none" stroke="black" d="M212.97,-1980.3C214.29,-1988.02 215.88,-1997.29 217.35,-2005.89"/>
<polygon fill="black" stroke="black" points="213.93,-2006.63 219.07,-2015.9 220.83,-2005.45 213.93,-2006.63"/>
</g>
<!-- &#45;8081008568336707273 -->
<g id="node36" class="node">
<title>&#45;8081008568336707273</title>
<g id="a_node36"><a xlink:title="A Blockwise Layer with 54 Tasks.&#10;">
<polygon fill="none" stroke="black" points="356,-2124 114,-2124 114,-2088 356,-2088 356,-2124"/>
<text text-anchor="middle" x="235" y="-2101" font-family="Helvetica,sans-Serif" font-size="20.00">to_pyarrow_string&#45;#35</text>
</a>
</g>
</g>
<!-- 5847120002953386509&#45;&gt;&#45;8081008568336707273 -->
<g id="edge49" class="edge">
<title>5847120002953386509&#45;&gt;&#45;8081008568336707273</title>
<path fill="none" stroke="black" d="M225.21,-2052.3C226.65,-2060.02 228.37,-2069.29 229.96,-2077.89"/>
<polygon fill="black" stroke="black" points="226.56,-2078.7 231.82,-2087.9 233.44,-2077.42 226.56,-2078.7"/>
</g>
<!-- &#45;8081008568336707273&#45;&gt;&#45;6621452576165074094 -->
<g id="edge12" class="edge">
<title>&#45;8081008568336707273&#45;&gt;&#45;6621452576165074094</title>
<path fill="none" stroke="black" d="M216.46,-2124.3C207.2,-2132.95 195.84,-2143.55 185.74,-2152.97"/>
<polygon fill="black" stroke="black" points="183.25,-2150.51 178.33,-2159.9 188.02,-2155.63 183.25,-2150.51"/>
</g>
<!-- &#45;8684752529036538170 -->
<g id="node38" class="node">
<title>&#45;8684752529036538170</title>
<g id="a_node38"><a xlink:title="A Blockwise Layer with 54 Tasks.&#10;">
<polygon fill="none" stroke="black" points="312.5,-2340 179.5,-2340 179.5,-2304 312.5,-2304 312.5,-2340"/>
<text text-anchor="middle" x="246" y="-2317" font-family="Helvetica,sans-Serif" font-size="20.00">astype&#45;#37</text>
</a>
</g>
</g>
<!-- &#45;7160341392647548408&#45;&gt;&#45;8684752529036538170 -->
<g id="edge51" class="edge">
<title>&#45;7160341392647548408&#45;&gt;&#45;8684752529036538170</title>
<path fill="none" stroke="black" d="M236.97,-2268.3C238.29,-2276.02 239.88,-2285.29 241.35,-2293.89"/>
<polygon fill="black" stroke="black" points="237.93,-2294.63 243.07,-2303.9 244.83,-2293.45 237.93,-2294.63"/>
</g>
<!-- &#45;1581238596533734451 -->
<g id="node39" class="node">
<title>&#45;1581238596533734451</title>
<g id="a_node39"><a xlink:title="A Blockwise Layer with 54 Tasks.&#10;">
<polygon fill="none" stroke="black" points="380,-2412 138,-2412 138,-2376 380,-2376 380,-2412"/>
<text text-anchor="middle" x="259" y="-2389" font-family="Helvetica,sans-Serif" font-size="20.00">to_pyarrow_string&#45;#38</text>
</a>
</g>
</g>
<!-- &#45;8684752529036538170&#45;&gt;&#45;1581238596533734451 -->
<g id="edge52" class="edge">
<title>&#45;8684752529036538170&#45;&gt;&#45;1581238596533734451</title>
<path fill="none" stroke="black" d="M249.21,-2340.3C250.65,-2348.02 252.37,-2357.29 253.96,-2365.89"/>
<polygon fill="black" stroke="black" points="250.56,-2366.7 255.82,-2375.9 257.44,-2365.42 250.56,-2366.7"/>
</g>
<!-- &#45;1581238596533734451&#45;&gt;7109705530589877927 -->
<g id="edge10" class="edge">
<title>&#45;1581238596533734451&#45;&gt;7109705530589877927</title>
<path fill="none" stroke="black" d="M240.46,-2412.3C231.2,-2420.95 219.84,-2431.55 209.74,-2440.97"/>
<polygon fill="black" stroke="black" points="207.25,-2438.51 202.33,-2447.9 212.02,-2443.63 207.25,-2438.51"/>
</g>
<!-- 3993709405056839141 -->
<g id="node41" class="node">
<title>3993709405056839141</title>
<g id="a_node41"><a xlink:title="A Blockwise Layer with 54 Tasks.&#10;">
<polygon fill="none" stroke="black" points="336.5,-2628 203.5,-2628 203.5,-2592 336.5,-2592 336.5,-2628"/>
<text text-anchor="middle" x="270" y="-2605" font-family="Helvetica,sans-Serif" font-size="20.00">astype&#45;#40</text>
</a>
</g>
</g>
<!-- 1201767948858172892&#45;&gt;3993709405056839141 -->
<g id="edge54" class="edge">
<title>1201767948858172892&#45;&gt;3993709405056839141</title>
<path fill="none" stroke="black" d="M260.97,-2556.3C262.29,-2564.02 263.88,-2573.29 265.35,-2581.89"/>
<polygon fill="black" stroke="black" points="261.93,-2582.63 267.07,-2591.9 268.83,-2581.45 261.93,-2582.63"/>
</g>
<!-- 5464425008957172854 -->
<g id="node42" class="node">
<title>5464425008957172854</title>
<g id="a_node42"><a xlink:title="A Blockwise Layer with 54 Tasks.&#10;">
<polygon fill="none" stroke="black" points="404,-2700 162,-2700 162,-2664 404,-2664 404,-2700"/>
<text text-anchor="middle" x="283" y="-2677" font-family="Helvetica,sans-Serif" font-size="20.00">to_pyarrow_string&#45;#41</text>
</a>
</g>
</g>
<!-- 3993709405056839141&#45;&gt;5464425008957172854 -->
<g id="edge55" class="edge">
<title>3993709405056839141&#45;&gt;5464425008957172854</title>
<path fill="none" stroke="black" d="M273.21,-2628.3C274.65,-2636.02 276.37,-2645.29 277.96,-2653.89"/>
<polygon fill="black" stroke="black" points="274.56,-2654.7 279.82,-2663.9 281.44,-2653.42 274.56,-2654.7"/>
</g>
<!-- 5464425008957172854&#45;&gt;4925851705889364908 -->
<g id="edge7" class="edge">
<title>5464425008957172854&#45;&gt;4925851705889364908</title>
<path fill="none" stroke="black" d="M264.46,-2700.3C255.2,-2708.95 243.84,-2719.55 233.74,-2728.97"/>
<polygon fill="black" stroke="black" points="231.25,-2726.51 226.33,-2735.9 236.02,-2731.63 231.25,-2726.51"/>
</g>
<!-- 8838961441246592748 -->
<g id="node43" class="node">
<title>8838961441246592748</title>
<g id="a_node43"><a xlink:title="A Blockwise Layer with 54 Tasks.&#10;">
<polygon fill="none" stroke="black" points="240,-2988 136,-2988 136,-2952 240,-2952 240,-2988"/>
<text text-anchor="middle" x="188" y="-2965" font-family="Helvetica,sans-Serif" font-size="20.00">add&#45;#42</text>
</a>
</g>
</g>
<!-- 8838961441246592748&#45;&gt;&#45;3119272655684410731 -->
<g id="edge6" class="edge">
<title>8838961441246592748&#45;&gt;&#45;3119272655684410731</title>
<path fill="none" stroke="black" d="M178.11,-2988.3C173.51,-2996.36 167.94,-3006.11 162.85,-3015.02"/>
<polygon fill="black" stroke="black" points="159.7,-3013.48 157.77,-3023.9 165.77,-3016.95 159.7,-3013.48"/>
</g>
<!-- 8676883862337968015 -->
<g id="node45" class="node">
<title>8676883862337968015</title>
<g id="a_node45"><a xlink:title="A Blockwise Layer with 54 Tasks.&#10;">
<polygon fill="none" stroke="black" points="240,-2916 136,-2916 136,-2880 240,-2880 240,-2916"/>
<text text-anchor="middle" x="188" y="-2893" font-family="Helvetica,sans-Serif" font-size="20.00">add&#45;#44</text>
</a>
</g>
</g>
<!-- 2388706734706253435&#45;&gt;8676883862337968015 -->
<g id="edge59" class="edge">
<title>2388706734706253435&#45;&gt;8676883862337968015</title>
<path fill="none" stroke="black" d="M203.06,-2844.3C200.83,-2852.1 198.15,-2861.49 195.67,-2870.17"/>
<polygon fill="black" stroke="black" points="192.27,-2869.32 192.89,-2879.9 199,-2871.24 192.27,-2869.32"/>
</g>
<!-- 8676883862337968015&#45;&gt;8838961441246592748 -->
<g id="edge57" class="edge">
<title>8676883862337968015&#45;&gt;8838961441246592748</title>
<path fill="none" stroke="black" d="M188,-2916.3C188,-2924.02 188,-2933.29 188,-2941.89"/>
<polygon fill="black" stroke="black" points="184.5,-2941.9 188,-2951.9 191.5,-2941.9 184.5,-2941.9"/>
</g>
<!-- 6968319469555559966&#45;&gt;8838961441246592748 -->
<g id="edge56" class="edge">
<title>6968319469555559966&#45;&gt;8838961441246592748</title>
<path fill="none" stroke="black" d="M295.26,-2916.12C276.18,-2925.53 252.32,-2937.29 231.95,-2947.33"/>
<polygon fill="black" stroke="black" points="230.29,-2944.25 222.87,-2951.81 233.39,-2950.53 230.29,-2944.25"/>
</g>
<!-- &#45;4137526167364080122 -->
<g id="node48" class="node">
<title>&#45;4137526167364080122</title>
<g id="a_node48"><a xlink:title="A Blockwise Layer with 54 Tasks.&#10;">
<polygon fill="none" stroke="black" points="310,-3204 126,-3204 126,-3168 310,-3168 310,-3204"/>
<text text-anchor="middle" x="218" y="-3181" font-family="Helvetica,sans-Serif" font-size="20.00">to_datetime&#45;#47</text>
</a>
</g>
</g>
<!-- &#45;3615448960122373410&#45;&gt;&#45;4137526167364080122 -->
<g id="edge62" class="edge">
<title>&#45;3615448960122373410&#45;&gt;&#45;4137526167364080122</title>
<path fill="none" stroke="black" d="M210.47,-3132.3C211.57,-3140.02 212.9,-3149.29 214.13,-3157.89"/>
<polygon fill="black" stroke="black" points="210.68,-3158.49 215.56,-3167.9 217.61,-3157.5 210.68,-3158.49"/>
</g>
<!-- &#45;4137526167364080122&#45;&gt;&#45;4087814288971151103 -->
<g id="edge4" class="edge">
<title>&#45;4137526167364080122&#45;&gt;&#45;4087814288971151103</title>
<path fill="none" stroke="black" d="M203.17,-3204.3C195.98,-3212.7 187.2,-3222.93 179.31,-3232.14"/>
<polygon fill="black" stroke="black" points="176.51,-3230.03 172.66,-3239.9 181.83,-3234.58 176.51,-3230.03"/>
</g>
<!-- 2191783456714596154 -->
<g id="node50" class="node">
<title>2191783456714596154</title>
<g id="a_node50"><a xlink:title="A Blockwise Layer with 54 Tasks.&#10;">
<polygon fill="none" stroke="black" points="320,-3420 136,-3420 136,-3384 320,-3384 320,-3420"/>
<text text-anchor="middle" x="228" y="-3397" font-family="Helvetica,sans-Serif" font-size="20.00">to_datetime&#45;#49</text>
</a>
</g>
</g>
<!-- &#45;1503476012625456641&#45;&gt;2191783456714596154 -->
<g id="edge64" class="edge">
<title>&#45;1503476012625456641&#45;&gt;2191783456714596154</title>
<path fill="none" stroke="black" d="M220.47,-3348.3C221.57,-3356.02 222.9,-3365.29 224.13,-3373.89"/>
<polygon fill="black" stroke="black" points="220.68,-3374.49 225.56,-3383.9 227.61,-3373.5 220.68,-3374.49"/>
</g>
<!-- 2191783456714596154&#45;&gt;&#45;4108900466500406968 -->
<g id="edge2" class="edge">
<title>2191783456714596154&#45;&gt;&#45;4108900466500406968</title>
<path fill="none" stroke="black" d="M213.17,-3420.3C205.98,-3428.7 197.2,-3438.93 189.31,-3448.14"/>
<polygon fill="black" stroke="black" points="186.51,-3446.03 182.66,-3455.9 191.83,-3450.58 186.51,-3446.03"/>
</g>
</g>
</svg>
